<?xml version="1.0" encoding="UTF-8" standalone="no"?>
<!-- Created with Inkscape (http://www.inkscape.org/) -->

<svg
   width="210mm"
   height="297mm"
   viewBox="0 0 210 297"
   version="1.1"
   id="svg1279"
   inkscape:version="1.1.1 (3bf5ae0d25, 2021-09-20)"
   sodipodi:docname="1string.svg"
   xmlns:inkscape="http://www.inkscape.org/namespaces/inkscape"
   xmlns:sodipodi="http://sodipodi.sourceforge.net/DTD/sodipodi-0.dtd"
   xmlns="http://www.w3.org/2000/svg"
   xmlns:svg="http://www.w3.org/2000/svg">
  <sodipodi:namedview
     id="namedview1281"
     pagecolor="#ffffff"
     bordercolor="#666666"
     borderopacity="1.0"
     inkscape:pageshadow="2"
     inkscape:pageopacity="0.0"
     inkscape:pagecheckerboard="0"
     inkscape:document-units="mm"
     showgrid="false"
     inkscape:lockguides="true"
     inkscape:zoom="0.36703143"
     inkscape:cx="339.20801"
     inkscape:cy="791.48536"
     inkscape:window-width="1920"
     inkscape:window-height="1009"
     inkscape:window-x="-8"
     inkscape:window-y="-8"
     inkscape:window-maximized="1"
     inkscape:current-layer="layer1" />
  <defs
     id="defs1276">
    <mask
       id="path-2-outside-1_1_8310"
       maskUnits="userSpaceOnUse"
       x="791"
       y="67"
       width="1026"
       height="97"
       fill="#000000">
      <rect
         fill="#ffffff"
         x="791"
         y="67"
         width="1026"
         height="97"
         id="rect859" />
      <path
         d="M 792.704,161 V 70.632 H 812.8 V 161 Z m 55.936,0 V 70.632 h 20.224 V 161 Z m -43.904,-37.76 v -17.408 h 50.56 v 17.408 z m 109.628,39.168 c -6.4,0 -12.203,-1.408 -17.408,-4.224 -5.12,-2.901 -9.173,-6.827 -12.16,-11.776 -2.987,-4.949 -4.48,-10.496 -4.48,-16.64 0,-6.144 1.493,-11.648 4.48,-16.512 2.987,-4.864 7.04,-8.704 12.16,-11.52 5.12,-2.9013 10.923,-4.352 17.408,-4.352 6.485,0 12.288,1.408 17.408,4.224 5.12,2.816 9.173,6.699 12.16,11.648 2.987,4.864 4.48,10.368 4.48,16.512 0,6.144 -1.493,11.691 -4.48,16.64 -2.987,4.949 -7.04,8.875 -12.16,11.776 -5.12,2.816 -10.923,4.224 -17.408,4.224 z m 0,-17.792 c 2.816,0 5.291,-0.597 7.424,-1.792 2.133,-1.28 3.755,-3.029 4.864,-5.248 1.195,-2.304 1.792,-4.907 1.792,-7.808 0,-2.901 -0.597,-5.419 -1.792,-7.552 -1.195,-2.219 -2.859,-3.925 -4.992,-5.12 -2.048,-1.28 -4.48,-1.92 -7.296,-1.92 -2.731,0 -5.163,0.64 -7.296,1.92 -2.133,1.195 -3.797,2.901 -4.992,5.12 -1.195,2.219 -1.792,4.779 -1.792,7.68 0,2.816 0.597,5.376 1.792,7.68 1.195,2.219 2.859,3.968 4.992,5.248 2.133,1.195 4.565,1.792 7.296,1.792 z M 972.144,161 950.64,98.792 h 19.2 l 13.312,45.184 -5.632,0.128 14.72,-45.312 h 15.87 l 14.85,45.312 -5.76,-0.128 13.44,-45.184 h 19.2 L 1028.34,161 h -16 l -14.468,-43.008 h 4.868 L 988.016,161 Z m 126.796,0 v -15.616 h 21.25 c 3.92,0 6.99,-1.152 9.21,-3.456 2.22,-2.304 3.33,-5.12 3.33,-8.448 0,-2.304 -0.51,-4.352 -1.53,-6.144 -1.03,-1.792 -2.48,-3.2 -4.36,-4.224 -1.79,-1.024 -4.01,-1.536 -6.65,-1.536 h -21.25 v -15.232 h 19.58 c 3.33,0 6.02,-0.811 8.07,-2.432 2.05,-1.707 3.07,-4.2667 3.07,-7.68 0,-3.328 -1.02,-5.8027 -3.07,-7.424 -2.05,-1.7067 -4.74,-2.56 -8.07,-2.56 h -19.58 V 70.632 h 23.42 c 5.81,0 10.71,1.0667 14.72,3.2 4.1,2.1333 7.21,4.992 9.35,8.576 2.13,3.584 3.2,7.552 3.2,11.904 0,5.5467 -1.79,10.24 -5.38,14.08 -3.58,3.84 -8.87,6.485 -15.87,7.936 l 0.51,-6.784 c 7.6,1.451 13.44,4.395 17.54,8.832 4.18,4.437 6.27,9.899 6.27,16.384 0,4.949 -1.24,9.429 -3.71,13.44 -2.39,3.925 -5.89,7.04 -10.5,9.344 -4.52,2.304 -9.98,3.456 -16.38,3.456 z m -15.36,0 V 70.632 h 19.84 V 161 Z m 107.86,1.408 c -5.72,0 -10.8,-1.152 -15.24,-3.456 -4.35,-2.389 -7.76,-5.632 -10.24,-9.728 -2.47,-4.181 -3.71,-8.96 -3.71,-14.336 V 98.792 h 19.59 v 35.84 c 0,2.133 0.34,3.968 1.02,5.504 0.77,1.536 1.88,2.731 3.33,3.584 1.45,0.853 3.2,1.28 5.25,1.28 2.9,0 5.2,-0.896 6.91,-2.688 1.7,-1.877 2.56,-4.437 2.56,-7.68 v -35.84 h 19.58 v 35.968 c 0,5.461 -1.24,10.283 -3.71,14.464 -2.48,4.096 -5.89,7.339 -10.24,9.728 -4.35,2.304 -9.39,3.456 -15.1,3.456 z m 67.84,-0.128 c -5.88,0 -11.13,-1.408 -15.74,-4.224 -4.52,-2.816 -8.11,-6.656 -10.75,-11.52 -2.56,-4.864 -3.84,-10.411 -3.84,-16.64 0,-6.229 1.28,-11.776 3.84,-16.64 2.64,-4.864 6.23,-8.704 10.75,-11.52 4.61,-2.816 9.86,-4.224 15.74,-4.224 4.27,0 8.11,0.8107 11.52,2.432 3.5,1.621 6.36,3.883 8.58,6.784 2.3,2.816 3.58,6.059 3.84,9.728 v 26.24 c -0.26,3.669 -1.49,6.997 -3.71,9.984 -2.22,2.901 -5.08,5.248 -8.58,7.04 -3.5,1.707 -7.38,2.56 -11.65,2.56 z m 3.46,-17.664 c 2.82,0 5.25,-0.597 7.3,-1.792 2.04,-1.28 3.66,-3.029 4.86,-5.248 1.19,-2.219 1.79,-4.779 1.79,-7.68 0,-2.901 -0.6,-5.419 -1.79,-7.552 -1.11,-2.219 -2.73,-3.968 -4.86,-5.248 -2.05,-1.28 -4.44,-1.92 -7.17,-1.92 -2.73,0 -5.17,0.64 -7.3,1.92 -2.05,1.28 -3.71,3.029 -4.99,5.248 -1.2,2.219 -1.79,4.736 -1.79,7.552 0,2.816 0.59,5.333 1.79,7.552 1.19,2.219 2.86,3.968 4.99,5.248 2.13,1.28 4.52,1.92 7.17,1.92 z M 1295.12,161 h -19.2 v -16.768 l 2.95,-15.104 -3.33,-15.104 V 68.072 h 19.58 z m 36.45,1.536 c -3.67,0 -7.3,-0.469 -10.88,-1.408 -3.5,-0.939 -6.79,-2.261 -9.86,-3.968 -2.98,-1.792 -5.54,-3.84 -7.68,-6.144 l 11.14,-11.264 c 2.05,2.219 4.48,3.968 7.29,5.248 2.82,1.195 5.89,1.792 9.22,1.792 2.3,0 4.05,-0.341 5.25,-1.024 1.28,-0.683 1.92,-1.621 1.92,-2.816 0,-1.536 -0.77,-2.688 -2.31,-3.456 -1.45,-0.853 -3.32,-1.579 -5.63,-2.176 -2.3,-0.683 -4.73,-1.408 -7.29,-2.176 -2.56,-0.768 -5,-1.835 -7.3,-3.2 -2.3,-1.365 -4.18,-3.243 -5.63,-5.632 -1.45,-2.475 -2.18,-5.589 -2.18,-9.344 0,-4.011 1.03,-7.467 3.07,-10.368 2.05,-2.987 4.95,-5.333 8.71,-7.04 3.75,-1.7067 8.15,-2.56 13.18,-2.56 5.29,0 10.16,0.9387 14.59,2.816 4.53,1.792 8.2,4.48 11.01,8.064 l -11.13,11.264 c -1.97,-2.304 -4.19,-3.925 -6.66,-4.864 -2.39,-0.939 -4.74,-1.408 -7.04,-1.408 -2.22,0 -3.88,0.341 -4.99,1.024 -1.11,0.597 -1.67,1.493 -1.67,2.688 0,1.28 0.73,2.304 2.18,3.072 1.45,0.768 3.33,1.451 5.63,2.048 2.31,0.597 4.74,1.323 7.3,2.176 2.56,0.853 4.99,2.005 7.29,3.456 2.31,1.451 4.19,3.413 5.64,5.888 1.45,2.389 2.17,5.547 2.17,9.472 0,6.059 -2.3,10.88 -6.91,14.464 -4.52,3.584 -10.67,5.376 -18.43,5.376 z m 58.62,0 c -3.67,0 -7.29,-0.469 -10.88,-1.408 -3.5,-0.939 -6.78,-2.261 -9.85,-3.968 -2.99,-1.792 -5.55,-3.84 -7.68,-6.144 l 11.13,-11.264 c 2.05,2.219 4.48,3.968 7.3,5.248 2.82,1.195 5.89,1.792 9.22,1.792 2.3,0 4.05,-0.341 5.24,-1.024 1.28,-0.683 1.92,-1.621 1.92,-2.816 0,-1.536 -0.76,-2.688 -2.3,-3.456 -1.45,-0.853 -3.33,-1.579 -5.63,-2.176 -2.31,-0.683 -4.74,-1.408 -7.3,-2.176 -2.56,-0.768 -4.99,-1.835 -7.29,-3.2 -2.31,-1.365 -4.19,-3.243 -5.64,-5.632 -1.45,-2.475 -2.17,-5.589 -2.17,-9.344 0,-4.011 1.02,-7.467 3.07,-10.368 2.05,-2.987 4.95,-5.333 8.7,-7.04 3.76,-1.7067 8.15,-2.56 13.19,-2.56 5.29,0 10.15,0.9387 14.59,2.816 4.52,1.792 8.19,4.48 11.01,8.064 l -11.14,11.264 c -1.96,-2.304 -4.18,-3.925 -6.65,-4.864 -2.39,-0.939 -4.74,-1.408 -7.04,-1.408 -2.22,0 -3.89,0.341 -5,1.024 -1.11,0.597 -1.66,1.493 -1.66,2.688 0,1.28 0.72,2.304 2.18,3.072 1.45,0.768 3.32,1.451 5.63,2.048 2.3,0.597 4.73,1.323 7.29,2.176 2.56,0.853 5,2.005 7.3,3.456 2.3,1.451 4.18,3.413 5.63,5.888 1.45,2.389 2.18,5.547 2.18,9.472 0,6.059 -2.31,10.88 -6.91,14.464 -4.53,3.584 -10.67,5.376 -18.44,5.376 z M 1474.86,161 1445.8,70.632 h 19.97 l 21.25,69.504 h -7.81 l 20.74,-69.504 h 15.74 l 20.74,69.504 h -7.68 l 21.12,-69.504 h 19.84 L 1540.65,161 h -15.74 l -20.87,-69.504 h 7.43 L 1490.6,161 Z m 125.88,1.408 c -6.4,0 -12.2,-1.408 -17.41,-4.224 -5.12,-2.901 -9.17,-6.827 -12.16,-11.776 -2.99,-4.949 -4.48,-10.496 -4.48,-16.64 0,-6.144 1.49,-11.648 4.48,-16.512 2.99,-4.864 7.04,-8.704 12.16,-11.52 5.12,-2.9013 10.92,-4.352 17.41,-4.352 6.48,0 12.29,1.408 17.41,4.224 5.12,2.816 9.17,6.699 12.16,11.648 2.98,4.864 4.48,10.368 4.48,16.512 0,6.144 -1.5,11.691 -4.48,16.64 -2.99,4.949 -7.04,8.875 -12.16,11.776 -5.12,2.816 -10.93,4.224 -17.41,4.224 z m 0,-17.792 c 2.82,0 5.29,-0.597 7.42,-1.792 2.14,-1.28 3.76,-3.029 4.87,-5.248 1.19,-2.304 1.79,-4.907 1.79,-7.808 0,-2.901 -0.6,-5.419 -1.79,-7.552 -1.2,-2.219 -2.86,-3.925 -4.99,-5.12 -2.05,-1.28 -4.48,-1.92 -7.3,-1.92 -2.73,0 -5.16,0.64 -7.3,1.92 -2.13,1.195 -3.79,2.901 -4.99,5.12 -1.19,2.219 -1.79,4.779 -1.79,7.68 0,2.816 0.6,5.376 1.79,7.68 1.2,2.219 2.86,3.968 4.99,5.248 2.14,1.195 4.57,1.792 7.3,1.792 z M 1644.54,161 V 98.792 h 19.58 V 161 Z m 19.58,-34.176 -8.19,-6.4 c 1.62,-7.253 4.35,-12.885 8.19,-16.896 3.84,-4.0107 9.17,-6.016 16,-6.016 2.99,0 5.59,0.4693 7.81,1.408 2.3,0.8533 4.31,2.219 6.02,4.096 l -11.65,14.72 c -0.86,-0.939 -1.92,-1.664 -3.2,-2.176 -1.28,-0.512 -2.73,-0.768 -4.35,-0.768 -3.25,0 -5.85,1.024 -7.81,3.072 -1.88,1.963 -2.82,4.949 -2.82,8.96 z m 74.85,34.176 -21.76,-32.256 21.63,-29.952 h 21.89 l -26.11,33.664 0.64,-8.064 26.75,36.608 z m -39.81,0 V 68.072 h 19.59 V 161 Z m 88.91,1.536 c -3.67,0 -7.3,-0.469 -10.88,-1.408 -3.5,-0.939 -6.79,-2.261 -9.86,-3.968 -2.98,-1.792 -5.54,-3.84 -7.68,-6.144 l 11.14,-11.264 c 2.05,2.219 4.48,3.968 7.29,5.248 2.82,1.195 5.89,1.792 9.22,1.792 2.3,0 4.05,-0.341 5.25,-1.024 1.28,-0.683 1.92,-1.621 1.92,-2.816 0,-1.536 -0.77,-2.688 -2.31,-3.456 -1.45,-0.853 -3.32,-1.579 -5.63,-2.176 -2.3,-0.683 -4.73,-1.408 -7.29,-2.176 -2.56,-0.768 -5,-1.835 -7.3,-3.2 -2.3,-1.365 -4.18,-3.243 -5.63,-5.632 -1.45,-2.475 -2.18,-5.589 -2.18,-9.344 0,-4.011 1.03,-7.467 3.07,-10.368 2.05,-2.987 4.95,-5.333 8.71,-7.04 3.75,-1.7067 8.15,-2.56 13.18,-2.56 5.29,0 10.16,0.9387 14.59,2.816 4.53,1.792 8.2,4.48 11.01,8.064 l -11.13,11.264 c -1.97,-2.304 -4.19,-3.925 -6.66,-4.864 -2.39,-0.939 -4.74,-1.408 -7.04,-1.408 -2.22,0 -3.88,0.341 -4.99,1.024 -1.11,0.597 -1.67,1.493 -1.67,2.688 0,1.28 0.73,2.304 2.18,3.072 1.45,0.768 3.33,1.451 5.63,2.048 2.31,0.597 4.74,1.323 7.3,2.176 2.56,0.853 4.99,2.005 7.29,3.456 2.31,1.451 4.19,3.413 5.64,5.888 1.45,2.389 2.17,5.547 2.17,9.472 0,6.059 -2.3,10.88 -6.91,14.464 -4.52,3.584 -10.67,5.376 -18.43,5.376 z"
         id="path861" />
    </mask>
  </defs>
  <g
     inkscape:label="Layer 1"
     inkscape:groupmode="layer"
     id="layer1">
    <path
       d="M -128.83465,27.228753 V 3.3188822 h 5.31707 V 27.228753 Z m 14.79974,0 V 3.3188822 h 5.35093 V 27.228753 Z m -11.61627,-9.99067 v -4.605867 h 13.37733 v 4.605867 z m 29.005732,10.3632 c -1.69333,0 -3.22871,-0.37253 -4.605852,-1.1176 -1.35467,-0.76756 -2.42703,-1.80631 -3.21734,-3.11573 -0.79031,-1.30943 -1.18533,-2.77707 -1.18533,-4.40267 0,-1.6256 0.39502,-3.08187 1.18533,-4.368801 0.79031,-1.286933 1.86267,-2.302933 3.21734,-3.048 1.354652,-0.767635 2.890032,-1.151466 4.605852,-1.151466 1.71583,0 3.2512,0.372533 4.60587,1.1176 1.35467,0.745066 2.42702,1.772443 3.21733,3.081866 0.79031,1.286931 1.18534,2.743201 1.18534,4.368801 0,1.6256 -0.39503,3.09324 -1.18534,4.40267 -0.79031,1.30942 -1.86266,2.34817 -3.21733,3.11573 -1.35467,0.74507 -2.89004,1.1176 -4.60587,1.1176 z m 0,-4.70747 c 0.74507,0 1.39991,-0.15795 1.96427,-0.47413 0.56436,-0.33867 0.99351,-0.80142 1.28693,-1.38853 0.31618,-0.6096 0.47414,-1.29831 0.47414,-2.06587 0,-0.76756 -0.15796,-1.43378 -0.47414,-1.99813 -0.31617,-0.58711 -0.75644,-1.03849 -1.3208,-1.35467 -0.54186,-0.33867 -1.18533,-0.508 -1.9304,-0.508 -0.72257,0 -1.36604,0.16933 -1.9304,0.508 -0.56435,0.31618 -1.00462,0.76756 -1.3208,1.35467 -0.316172,0.58711 -0.474132,1.26444 -0.474132,2.032 0,0.74506 0.15796,1.4224 0.474132,2.032 0.31618,0.58711 0.75645,1.04986 1.3208,1.38853 0.56436,0.31618 1.20783,0.47413 1.9304,0.47413 z m 15.28763,4.33494 -5.6896,-16.459204 h 5.08 l 3.52213,11.954934 -1.49013,0.0339 3.89466,-11.988801 h 4.19947 l 3.92853,11.988801 -1.524,-0.0339 3.556,-11.954934 h 5.08 l -5.6896,16.459204 h -4.23333 l -3.82693,-11.3792 h 1.28693 l -3.89467,11.3792 z m 33.54784,0 v -4.13174 h 5.62187 c 1.03857,0 1.85137,-0.3048 2.4384,-0.9144 0.58703,-0.6096 0.88053,-1.35466 0.88053,-2.2352 0,-0.6096 -0.13547,-1.15146 -0.4064,-1.6256 -0.27093,-0.47413 -0.65476,-0.84666 -1.15147,-1.1176 -0.47413,-0.27093 -1.06116,-0.4064 -1.76106,-0.4064 h -5.62187 v -4.030131 h 5.1816 c 0.88053,0 1.59173,-0.214577 2.1336,-0.643466 0.54187,-0.451644 0.8128,-1.128898 0.8128,-2.032 0,-0.8805338 -0.27093,-1.5352978 -0.8128,-1.9642668 -0.54187,-0.451564 -1.25307,-0.677333 -2.1336,-0.677333 h -5.1816 v -4.131734 h 6.1976 c 1.5353,0 2.8335,0.282231 3.89467,0.846667 1.08373,0.564436 1.90783,1.3208 2.47226,2.269067 0.56444,0.948266 0.84667,1.998133 0.84667,3.1496 0,1.4675638 -0.47413,2.7093328 -1.4224,3.7253328 -0.94827,1.016 -2.3481,1.715824 -4.19947,2.099734 l 0.13547,-1.794934 c 2.00943,0.38391 3.556,1.162844 4.63973,2.336804 1.10631,1.17395 1.65947,2.61911 1.65947,4.33493 0,1.30942 -0.32737,2.49476 -0.98213,3.556 -0.63217,1.03849 -1.55787,1.86267 -2.77707,2.47227 -1.19663,0.6096 -2.6416,0.9144 -4.33493,0.9144 z m -4.064,0 V 3.3188822 h 5.24933 V 27.228753 Z m 28.5369,0.37253 c -1.51262,0 -2.85618,-0.3048 -4.03013,-0.9144 -1.15147,-0.63209 -2.05449,-1.49013 -2.70934,-2.57387 -0.65484,-1.10622 -0.98213,-2.37066 -0.98213,-3.79306 v -9.550404 h 5.1816 v 9.482664 c 0,0.56436 0.0902,1.04987 0.27093,1.45627 0.2032,0.4064 0.49663,0.72258 0.88054,0.94827 0.38391,0.22569 0.84666,0.33866 1.38853,0.33866 0.76756,0 1.37716,-0.23706 1.8288,-0.7112 0.451642,-0.49662 0.677332,-1.17395 0.677332,-2.032 v -9.482664 h 5.1816 v 9.516534 c 0,1.44489 -0.32729,2.72071 -0.98213,3.82693 -0.65484,1.08374 -1.55787,1.94178 -2.70933,2.57387 -1.15147,0.6096 -2.483652,0.9144 -3.996272,0.9144 z m 17.9514527,-0.0339 c -1.55787,0 -2.9464,-0.37253 -4.1656,-1.1176 -1.1967107,-0.74507 -2.1449807,-1.76107 -2.8448007,-3.048 -0.67733,-1.28693 -1.016,-2.75458 -1.016,-4.40267 0,-1.64809 0.33867,-3.11573 1.016,-4.402664 0.69982,-1.286933 1.64809,-2.302933 2.8448007,-3.048 1.2192,-0.745066 2.60773,-1.1176 4.1656,-1.1176 1.12898,0 2.14498,0.214498 3.048,0.643467 0.92578,0.42889 1.68195997,1.027377 2.26906997,1.794933 0.60960004,0.745067 0.94826004,1.603111 1.01600004,2.573864 v 6.94267 c -0.0677,0.97076 -0.39503,1.85129 -0.98214004,2.6416 -0.58711,0.76756 -1.34328997,1.38853 -2.26905997,1.86267 -0.92578,0.45164 -1.95289,0.67733 -3.08187,0.67733 z m 0.9144,-4.6736 c 0.74507,0 1.38853,-0.15796 1.9304,-0.47413 0.54187,-0.33867 0.97076,-0.80143 1.28693,-1.38854 0.31617997,-0.58711 0.47413997,-1.26444 0.47413997,-2.032 0,-0.76755 -0.15796,-1.43377 -0.47413997,-1.99813 -0.29342,-0.58711 -0.72257,-1.04987 -1.28693,-1.38853 -0.54187,-0.33867 -1.17396,-0.508 -1.89653,-0.508 -0.72258,0 -1.36605,0.16933 -1.9304,0.508 -0.54187,0.33866 -0.98214,0.80142 -1.3208,1.38853 -0.31618,0.58711 -0.47414,1.25307 -0.47414,1.99813 0,0.74507 0.15796,1.41103 0.47414,1.99814 0.31617,0.58711 0.75644,1.04986 1.3208,1.38853 0.56435,0.33867 1.19671,0.508 1.89653,0.508 z m 8.56827,4.33493 h -5.08000003 v -4.43653 l 0.77893,-3.99627 -0.88052997,-3.996264 V 2.6415192 h 5.1816 z m 9.6427393,0.4064 c -0.97076,0 -1.9304,-0.12409 -2.87867,-0.37253 -0.9257798,-0.24844 -1.7949293,-0.59822 -2.6077293,-1.04987 -0.79031,-0.47413 -1.46765,-1.016 -2.032,-1.6256 l 2.9464,-2.98026 c 0.5418595,0.58711 1.1853293,1.04986 1.9303993,1.38853 0.74506,0.31618 1.55786,0.47413 2.4384,0.47413 0.6096,0 1.07235,-0.0902 1.38853,-0.27093 0.33867,-0.18071 0.508,-0.42889 0.508,-0.74507 0,-0.4064 -0.2032,-0.7112 -0.6096,-0.9144 -0.38391,-0.22569 -0.88053,-0.41777 -1.49013,-0.57573 -0.6096,-0.18071 -1.25307,-0.37253 -1.9304,-0.57573 -0.67734,-0.2032 -1.3208,-0.48551 -1.9303998,-0.84667 -0.6095995,-0.36116 -1.1062295,-0.85804 -1.4901395,-1.49013 -0.38391,-0.65485 -0.57573,-1.47876 -0.57573,-2.47227 0,-1.061244 0.27093,-1.975644 0.8128,-2.7432 0.54187,-0.790311 1.3094195,-1.411023 2.3029293,-1.862667 0.99351,-0.451564 2.15609,-0.677333 3.48827,-0.677333 1.39991,0 2.68684,0.248364 3.8608,0.745066 1.19671,0.474134 2.16747,1.185334 2.91253,2.1336 l -2.9464,2.980264 c -0.51937,-0.6096 -1.10622,-1.03849 -1.76106,-1.28693 -0.63209,-0.248444 -1.25307,-0.372534 -1.86267,-0.372534 -0.58711,0 -1.02738,0.09022 -1.3208,0.270934 -0.29342,0.157956 -0.44027,0.39502 -0.44027,0.7112 0,0.33867 0.19183,0.6096 0.57574,0.8128 0.38391,0.2032 0.88053,0.38391 1.49013,0.54187 0.6096,0.15795 1.25307,0.35004 1.9304,0.57573 0.67733,0.22569 1.3208,0.53049 1.9304,0.9144 0.6096,0.38391 1.10622,0.90302 1.49013,1.55787 0.38391,0.63209 0.57574,1.46764 0.57574,2.50613 0,1.60311 -0.6096,2.87867 -1.8288,3.82693 -1.19671,0.94827 -2.82231,1.4224 -4.8768,1.4224 z m 15.51119,0 c -0.97075,0 -1.9304,-0.12409 -2.87866,-0.37253 -0.92578,-0.24844 -1.79494,-0.59822 -2.60774,-1.04987 -0.79031,-0.47413 -1.46764,-1.016 -2.032,-1.6256 l 2.9464,-2.98026 c 0.54187,0.58711 1.18534,1.04986 1.9304,1.38853 0.74507,0.31618 1.55787,0.47413 2.4384,0.47413 0.6096,0 1.07236,-0.0902 1.38854,-0.27093 0.33866,-0.18071 0.508,-0.42889 0.508,-0.74507 0,-0.4064 -0.2032,-0.7112 -0.6096,-0.9144 -0.38391,-0.22569 -0.88054,-0.41777 -1.49014,-0.57573 -0.6096,-0.18071 -1.25306,-0.37253 -1.9304,-0.57573 -0.67733,-0.2032 -1.3208,-0.48551 -1.9304,-0.84667 -0.6096,-0.36116 -1.10622,-0.85804 -1.49013,-1.49013 -0.38391,-0.65485 -0.57573,-1.47876 -0.57573,-2.47227 0,-1.061244 0.27093,-1.975644 0.8128,-2.7432 0.54186,-0.790311 1.30942,-1.411023 2.30293,-1.862667 0.99351,-0.451564 2.15609,-0.677333 3.48827,-0.677333 1.39991,0 2.68684,0.248364 3.8608,0.745066 1.19671,0.474134 2.16746,1.185334 2.91253,2.1336 l -2.9464,2.980264 c -0.51938,-0.6096 -1.10622,-1.03849 -1.76107,-1.28693 -0.63209,-0.248444 -1.25306,-0.372534 -1.86266,-0.372534 -0.58711,0 -1.02738,0.09022 -1.3208,0.270934 -0.29343,0.157956 -0.44027,0.39502 -0.44027,0.7112 0,0.33867 0.19182,0.6096 0.57573,0.8128 0.38391,0.2032 0.88054,0.38391 1.49014,0.54187 0.6096,0.15795 1.25306,0.35004 1.9304,0.57573 0.67733,0.22569 1.3208,0.53049 1.9304,0.9144 0.6096,0.38391 1.10622,0.90302 1.49013,1.55787 0.38391,0.63209 0.57573,1.46764 0.57573,2.50613 0,1.60311 -0.6096,2.87867 -1.8288,3.82693 -1.19671,0.94827 -2.82231,1.4224 -4.8768,1.4224 z m 22.40069,-0.4064 -7.68774,-23.9098638 h 5.2832 l 5.62187,18.3896038 h -2.06587 l 5.4864,-18.3896038 h 4.1656 l 5.4864,18.3896038 h -2.032 l 5.588,-18.3896038 h 5.24934 l -7.68774,23.9098638 h -4.1656 L 59.373264,8.8391162 h 1.96426 l -5.52026,18.3895968 z m 33.30628,0.37254 c -1.69334,0 -3.22872,-0.37254 -4.60587,-1.1176 -1.35467,-0.76756 -2.42702,-1.80631 -3.21733,-3.11574 -0.79032,-1.30942 -1.18534,-2.77706 -1.18534,-4.40266 0,-1.6256 0.39502,-3.08187 1.18534,-4.368804 0.79031,-1.286933 1.86266,-2.302933 3.21733,-3.048 1.35467,-0.767635 2.89004,-1.151466 4.60587,-1.151466 1.71582,0 3.2512,0.372533 4.60586,1.1176 1.35467,0.745066 2.42702,1.772443 3.21734,3.081866 0.79031,1.286934 1.18533,2.743204 1.18533,4.368804 0,1.6256 -0.39502,3.09324 -1.18533,4.40266 -0.79032,1.30943 -1.86267,2.34818 -3.21734,3.11574 -1.35466,0.74506 -2.89004,1.1176 -4.60586,1.1176 z m 0,-4.70747 c 0.74506,0 1.39991,-0.15796 1.96426,-0.47413 0.56436,-0.33867 0.99351,-0.80143 1.28694,-1.38854 0.31617,-0.6096 0.47413,-1.29831 0.47413,-2.06586 0,-0.76756 -0.15796,-1.43378 -0.47413,-1.99814 -0.31618,-0.58711 -0.75645,-1.03849 -1.3208,-1.35466 -0.54187,-0.33867 -1.18534,-0.508 -1.9304,-0.508 -0.72258,0 -1.36605,0.16933 -1.9304,0.508 -0.56436,0.31617 -1.00463,0.76755 -1.3208,1.35466 -0.31618,0.58711 -0.47414,1.26445 -0.47414,2.032 0,0.74507 0.15796,1.4224 0.47414,2.032 0.31617,0.58711 0.75644,1.04987 1.3208,1.38854 0.56435,0.31617 1.20782,0.47413 1.9304,0.47413 z m 11.58822,4.33493 V 10.769546 h 5.181606 v 16.459197 z m 5.181606,-9.0424 -2.167474,-1.69333 c 0.42889,-1.919023 1.151474,-3.409157 2.167474,-4.4704 1.016,-1.061165 2.42702,-1.591734 4.23333,-1.591734 0.79031,0 1.47876,0.124169 2.06587,0.372534 0.6096,0.225769 1.14009,0.58711 1.59173,1.083733 l -3.08187,3.894667 c -0.22569,-0.24844 -0.508,-0.44027 -0.84666,-0.57573 -0.33867,-0.13547 -0.72258,-0.2032 -1.15147,-0.2032 -0.85804,0 -1.54649,0.27093 -2.06587,0.8128 -0.49662,0.51937 -0.74506,1.30942 -0.74506,2.37066 z m 19.80379,9.0424 -5.75733,-8.5344 5.72347,-7.924797 h 5.7912 l -6.9088,8.906937 0.16933,-2.1336 7.07813,9.68586 z m -10.53253,0 V 2.6415462 h 5.1816 V 27.228743 Z m 23.52304,0.4064 c -0.97075,0 -1.9304,-0.12409 -2.87866,-0.37253 -0.92578,-0.24844 -1.79494,-0.59822 -2.60774,-1.04987 -0.79031,-0.47413 -1.46764,-1.016 -2.032,-1.6256 l 2.9464,-2.98026 c 0.54187,0.58711 1.18534,1.04986 1.9304,1.38853 0.74507,0.31618 1.55787,0.47413 2.4384,0.47413 0.6096,0 1.07236,-0.0902 1.38854,-0.27093 0.33866,-0.18071 0.508,-0.42889 0.508,-0.74507 0,-0.4064 -0.2032,-0.7112 -0.6096,-0.9144 -0.38391,-0.22569 -0.88054,-0.41777 -1.49014,-0.57573 -0.6096,-0.18071 -1.25306,-0.37253 -1.9304,-0.57573 -0.67733,-0.2032 -1.3208,-0.48551 -1.9304,-0.84667 -0.6096,-0.36116 -1.10622,-0.85804 -1.49013,-1.49013 -0.38391,-0.65485 -0.57573,-1.47876 -0.57573,-2.47227 0,-1.061244 0.27093,-1.975644 0.8128,-2.7432 0.54186,-0.790311 1.30942,-1.411023 2.30293,-1.862667 0.99351,-0.451564 2.15609,-0.677333 3.48827,-0.677333 1.39991,0 2.68684,0.248364 3.8608,0.745066 1.19671,0.474134 2.16746,1.185334 2.91253,2.1336 l -2.9464,2.980264 c -0.51938,-0.6096 -1.10622,-1.03849 -1.76107,-1.28693 -0.63209,-0.248444 -1.25306,-0.372534 -1.86266,-0.372534 -0.58711,0 -1.02738,0.09022 -1.3208,0.270934 -0.29343,0.157956 -0.44027,0.39502 -0.44027,0.7112 0,0.33867 0.19182,0.6096 0.57573,0.8128 0.38391,0.2032 0.88054,0.38391 1.49014,0.54187 0.6096,0.15795 1.25306,0.35004 1.9304,0.57573 0.67733,0.22569 1.3208,0.53049 1.9304,0.9144 0.6096,0.38391 1.10622,0.90302 1.49013,1.55787 0.38391,0.63209 0.57573,1.46764 0.57573,2.50613 0,1.60311 -0.6096,2.87867 -1.8288,3.82693 -1.19671,0.94827 -2.82231,1.4224 -4.8768,1.4224 z"
       fill="#2fdbbc"
       id="path857"
       style="stroke-width:0.264583" />
    <path
       d="m 792.704,161 h -1 v 1 h 1 z m 0,-90.368 v -1 h -1 v 1 z m 20.096,0 h 1 v -1 h -1 z m 0,90.368 v 1 h 1 v -1 z m 35.84,0 h -1 v 1 h 1 z m 0,-90.368 v -1 h -1 v 1 z m 20.224,0 h 1 v -1 h -1 z m 0,90.368 v 1 h 1 v -1 z m -64.128,-37.76 h -1 v 1 h 1 z m 0,-17.408 v -1 h -1 v 1 z m 50.56,0 h 1 v -1 h -1 z m 0,17.408 v 1 h 1 v -1 z M 793.704,161 V 70.632 h -2 V 161 Z m -1,-89.368 H 812.8 v -2 h -20.096 z m 19.096,-1 V 161 h 2 V 70.632 Z m 1,89.368 h -20.096 v 2 H 812.8 Z m 36.84,1 V 70.632 h -2 V 161 Z m -1,-89.368 h 20.224 v -2 H 848.64 Z m 19.224,-1 V 161 h 2 V 70.632 Z m 1,89.368 H 848.64 v 2 h 20.224 z m -63.128,-36.76 v -17.408 h -2 v 17.408 z m -1,-16.408 h 50.56 v -2 h -50.56 z m 49.56,-1 v 17.408 h 2 v -17.408 z m 1,16.408 h -50.56 v 2 h 50.56 z m 41.66,35.944 -0.493,0.87 0.009,0.005 0.008,0.005 z m -12.16,-11.776 0.856,-0.517 z m 0,-33.152 -0.852,-0.523 z m 12.16,-11.52 0.482,0.876 0.011,-0.006 z m 46.976,11.52 -0.856,0.517 0.004,0.006 z m 0,33.152 0.856,0.517 z m -12.16,11.776 0.482,0.876 0.011,-0.006 z m -9.984,-15.36 0.489,0.873 0.013,-0.008 0.012,-0.008 z m 4.864,-5.248 -0.888,-0.46 -0.003,0.006 -0.003,0.007 z m 0,-15.36 -0.88,0.474 0.003,0.007 0.004,0.008 z m -4.992,-5.12 -0.53,0.848 0.02,0.013 0.021,0.012 z m -14.592,0 0.489,0.873 0.013,-0.008 0.012,-0.008 z m -4.992,5.12 0.88,0.474 z m 0,15.36 -0.888,0.46 0.004,0.007 0.004,0.007 z m 4.992,5.248 -0.514,0.857 0.012,0.008 0.013,0.008 z m 7.296,18.584 c -6.248,0 -11.885,-1.373 -16.932,-4.104 l -0.952,1.76 c 5.363,2.901 11.332,4.344 17.884,4.344 z m -16.915,-4.094 c -4.973,-2.818 -8.901,-6.623 -11.797,-11.423 l -1.712,1.034 c 3.077,5.099 7.256,9.145 12.523,12.129 z m -11.797,-11.423 c -2.886,-4.783 -4.336,-10.149 -4.336,-16.123 h -2 c 0,6.314 1.537,12.042 4.624,17.157 z m -4.336,-16.123 c 0,-5.974 1.45,-11.294 4.332,-15.989 l -1.704,-1.046 c -3.091,5.033 -4.628,10.721 -4.628,17.035 z m 4.332,-15.989 c 2.894,-4.712 6.818,-8.432 11.79,-11.167 l -0.964,-1.752 c -5.268,2.897 -9.451,6.857 -12.53,11.873 z m 11.801,-11.173 c 4.955,-2.8076 10.584,-4.222 16.915,-4.222 v -2 c -6.64,0 -12.616,1.487 -17.901,4.482 z m 16.915,-4.222 c 6.336,0 11.969,1.3741 16.926,4.1 l 0.964,-1.752 c -5.283,-2.9061 -11.255,-4.348 -17.89,-4.348 z m 16.926,4.1 c 4.968,2.732 8.891,6.492 11.786,11.289 l 1.712,-1.034 c -3.078,-5.101 -7.262,-9.107 -12.534,-12.007 z m 11.79,11.295 c 2.882,4.695 4.332,10.015 4.332,15.989 h 2 c 0,-6.314 -1.537,-12.002 -4.628,-17.035 z m 4.332,15.989 c 0,5.974 -1.45,11.34 -4.336,16.123 l 1.712,1.034 c 3.087,-5.115 4.624,-10.843 4.624,-17.157 z m -4.336,16.123 c -2.896,4.8 -6.824,8.605 -11.797,11.423 l 0.986,1.74 c 5.267,-2.984 9.446,-7.03 12.523,-12.129 z m -11.786,11.417 c -4.957,2.726 -10.59,4.1 -16.926,4.1 v 2 c 6.635,0 12.607,-1.442 17.89,-4.348 z m -16.926,-11.692 c 2.961,0 5.609,-0.629 7.913,-1.919 l -0.978,-1.746 c -1.962,1.1 -4.264,1.665 -6.935,1.665 z m 7.938,-1.935 c 2.296,-1.377 4.05,-3.268 5.244,-5.658 l -1.788,-0.894 c -1.024,2.048 -2.514,3.655 -4.484,4.838 z m 5.238,-5.645 c 1.277,-2.462 1.904,-5.226 1.904,-8.268 h -2 c 0,2.76 -0.567,5.202 -1.68,7.348 z m 1.904,-8.268 c 0,-3.04 -0.627,-5.732 -1.919,-8.041 l -1.746,0.978 c 1.097,1.958 1.665,4.301 1.665,7.063 z m -1.912,-8.026 c -1.281,-2.381 -3.079,-4.228 -5.383,-5.519 l -0.978,1.746 c 1.963,1.098 3.493,2.664 4.601,4.721 z m -5.342,-5.494 c -2.232,-1.395 -4.854,-2.072 -7.826,-2.072 v 2 c 2.66,0 4.902,0.603 6.766,1.768 z m -7.826,-2.072 c -2.894,0 -5.507,0.68 -7.81,2.063 l 1.028,1.714 c 1.963,-1.177 4.214,-1.777 6.782,-1.777 z m -7.785,2.047 c -2.304,1.291 -4.102,3.138 -5.383,5.519 l 1.76,0.948 c 1.108,-2.057 2.638,-3.623 4.601,-4.721 z m -5.383,5.519 c -1.285,2.385 -1.912,5.112 -1.912,8.154 h 2 c 0,-2.761 0.567,-5.154 1.672,-7.206 z m -1.912,8.154 c 0,2.962 0.63,5.682 1.904,8.14 l 1.776,-0.92 c -1.115,-2.15 -1.68,-4.55 -1.68,-7.22 z m 1.912,8.154 c 1.278,2.375 3.068,4.258 5.358,5.631 l 1.028,-1.714 c -1.977,-1.187 -3.515,-2.803 -4.626,-4.865 z m 5.383,5.647 c 2.3,1.287 4.904,1.919 7.785,1.919 v -2 c -2.58,0 -4.84,-0.563 -6.807,-1.665 z m 65.565,17.303 -0.945,0.327 0.233,0.673 h 0.712 z M 950.64,98.792 v -1 h -1.404 l 0.459,1.3267 z m 19.2,0 0.959,-0.2826 -0.211,-0.7174 h -0.748 z m 13.312,45.184 0.023,1 1.305,-0.03 -0.369,-1.253 z m -5.632,0.128 -0.951,-0.309 -0.436,1.341 1.41,-0.032 z m 14.72,-45.312 v -1 h -0.727 l -0.224,0.691 z m 15.87,0 0.95,-0.3114 -0.22,-0.6886 h -0.73 z m 14.85,45.312 -0.02,1 1.41,0.031 -0.44,-1.342 z m -5.76,-0.128 -0.96,-0.285 -0.37,1.256 1.31,0.029 z m 13.44,-45.184 v -1 h -0.75 l -0.21,0.7149 z m 19.2,0 0.95,0.3267 0.45,-1.3267 h -1.4 z M 1028.34,161 v 1 h 0.71 l 0.23,-0.673 z m -16,0 -0.95,0.319 0.23,0.681 h 0.72 z m -14.468,-43.008 v -1 h -1.391 l 0.443,1.319 z m 4.868,0 0.94,0.324 0.46,-1.324 h -1.4 z M 988.016,161 v 1 h 0.715 l 0.231,-0.676 z m -14.927,-0.327 -21.504,-62.2077 -1.89,0.6534 21.504,62.2083 z M 950.64,99.792 h 19.2 v -2 h -19.2 z m 18.241,-0.7174 13.312,45.1844 1.918,-0.566 -13.312,-45.1836 z m 14.248,43.9014 -5.632,0.128 0.046,2 5.632,-0.128 z m -4.658,1.437 14.72,-45.312 -1.902,-0.618 -14.72,45.312 z M 992.24,99.792 h 15.87 v -2 h -15.87 z m 14.92,-0.6886 14.85,45.3116 1.9,-0.622 -14.85,-45.3124 z m 15.82,44.0006 -5.76,-0.128 -0.04,2 5.76,0.128 z m -4.82,1.157 13.44,-45.1839 -1.92,-0.5702 -13.44,45.1841 z m 12.48,-44.469 h 19.2 v -2 h -19.2 z m 18.25,-1.3267 -21.5,62.2077 1.89,0.654 21.51,-62.2083 z M 1028.34,160 h -16 v 2 h 16 z m -15.06,0.681 -14.46,-43.008 -1.896,0.638 14.466,43.008 z m -15.408,-41.689 h 4.868 v -2 h -4.868 z m 3.918,-1.324 -14.72,43.008 1.892,0.648 14.718,-43.008 z M 988.016,160 h -15.872 v 2 h 15.872 z m 110.924,1 h -1 v 1 h 1 z m 0,-15.616 v -1 h -1 v 1 z m 30.46,-3.456 0.72,0.694 z m -2.56,-18.816 -0.49,0.868 0.01,0.005 v 0.005 z m -27.9,-1.536 h -1 v 1 h 1 z m 0,-15.232 v -1 h -1 v 1 z m 27.65,-2.432 0.62,0.784 0.01,-0.008 0.01,-0.008 z m 0,-15.104 -0.64,0.7682 0.01,0.0081 0.01,0.0077 z m -27.65,-2.56 h -1 v 1 h 1 z m 0,-15.616 v -1 h -1 v 1 z m 38.14,3.2 -0.47,0.8829 0.01,0.004 z m 9.35,8.576 -0.86,0.5115 v 0 z m -2.18,25.984 0.73,0.682 z m -15.87,7.936 -1,-0.075 -0.1,1.324 1.3,-0.27 z m 0.51,-6.784 0.19,-0.982 -1.1,-0.21 -0.09,1.117 z m 17.54,8.832 -0.74,0.678 0.01,0.008 z m 2.56,29.824 -0.85,-0.525 -0.01,0.005 z m -10.5,9.344 -0.45,-0.894 v 0.003 z M 1083.58,161 h -1 v 1 h 1 z m 0,-90.368 v -1 h -1 v 1 z m 19.84,0 h 1 v -1 h -1 z m 0,90.368 v 1 h 1 v -1 z m -3.48,0 v -15.616 h -2 V 161 Z m -1,-14.616 h 21.25 v -2 h -21.25 z m 21.25,0 c 4.13,0 7.48,-1.22 9.93,-3.762 l -1.44,-1.388 c -1.99,2.066 -4.77,3.15 -8.49,3.15 z m 9.93,-3.762 c 2.41,-2.499 3.61,-5.567 3.61,-9.142 h -2 c 0,3.081 -1.02,5.645 -3.05,7.754 z m 3.61,-9.142 c 0,-2.457 -0.55,-4.68 -1.67,-6.64 l -1.73,0.992 c 0.92,1.624 1.4,3.497 1.4,5.648 z m -1.67,-6.64 c -1.12,-1.959 -2.7,-3.497 -4.74,-4.606 l -0.96,1.756 c 1.72,0.939 3.04,2.217 3.97,3.842 z m -4.72,-4.596 c -1.98,-1.132 -4.38,-1.668 -7.15,-1.668 v 2 c 2.52,0 4.55,0.488 6.16,1.404 z m -7.15,-1.668 h -21.25 v 2 h 21.25 z m -20.25,1 v -15.232 h -2 v 15.232 z m -1,-14.232 h 19.58 v -2 h -19.58 z m 19.58,0 c 3.49,0 6.42,-0.852 8.69,-2.648 l -1.24,-1.568 c -1.83,1.447 -4.28,2.216 -7.45,2.216 z m 8.71,-2.664 c 2.33,-1.947 3.43,-4.8277 3.43,-8.448 h -2 c 0,3.2064 -0.95,5.446 -2.71,6.912 z m 3.43,-8.448 c 0,-3.5422 -1.1,-6.3468 -3.45,-8.208 l -1.24,1.568 c 1.74,1.3814 2.69,3.5262 2.69,6.64 z m -3.43,-8.1922 c -2.27,-1.8907 -5.2,-2.7918 -8.71,-2.7918 v 2 c 3.16,0 5.6,0.8056 7.43,2.3282 z m -8.71,-2.7918 h -19.58 v 2 h 19.58 z m -18.58,1 V 70.632 h -2 v 15.616 z m -1,-14.616 h 23.42 v -2 h -23.42 z m 23.42,0 c 5.69,0 10.42,1.0448 14.25,3.0829 l 0.94,-1.7658 c -4.19,-2.2286 -9.26,-3.3171 -15.19,-3.3171 z m 14.26,3.0869 c 3.95,2.057 6.92,4.793 8.95,8.2006 l 1.72,-1.023 c -2.24,-3.7604 -5.5,-6.7418 -9.75,-8.9514 z m 8.95,8.2006 c 2.03,3.4224 3.06,7.2124 3.06,11.3925 h 2 c 0,-4.5239 -1.11,-8.6699 -3.34,-12.4155 z m 3.06,11.3925 c 0,5.309 -1.71,9.754 -5.11,13.398 l 1.46,1.364 c 3.77,-4.036 5.65,-8.978 5.65,-14.762 z m -5.11,13.398 c -3.4,3.643 -8.48,6.215 -15.34,7.639 l 0.4,1.958 c 7.13,-1.478 12.63,-4.196 16.4,-8.233 z m -14.14,8.693 0.51,-6.784 -2,-0.15 -0.51,6.784 z m -0.68,-5.877 c 7.45,1.422 13.08,4.287 16.99,8.528 l 1.47,-1.356 c -4.28,-4.634 -10.34,-7.657 -18.08,-9.136 z m 17,8.536 c 3.99,4.239 6,9.45 6,15.698 h 2 c 0,-6.722 -2.18,-12.434 -6.55,-17.07 z m 6,15.698 c 0,4.774 -1.19,9.07 -3.56,12.915 l 1.7,1.05 c 2.58,-4.176 3.86,-8.84 3.86,-13.965 z m -3.57,12.92 c -2.28,3.746 -5.63,6.739 -10.09,8.97 l 0.9,1.788 c 4.75,-2.377 8.4,-5.613 10.9,-9.718 z m -10.09,8.973 c -4.35,2.216 -9.65,3.347 -15.93,3.347 v 2 c 6.51,0 12.14,-1.173 16.83,-3.565 z M 1122.11,160 h -23.17 v 2 h 23.17 z m -37.53,1 V 70.632 h -2 V 161 Z m -1,-89.368 h 19.84 v -2 h -19.84 z m 18.84,-1 V 161 h 2 V 70.632 Z m 1,89.368 h -19.84 v 2 h 19.84 z m 72.78,-1.048 -0.48,0.877 0.01,0.005 0.01,0.005 z m -10.24,-9.728 -0.86,0.509 0.01,0.008 z m -3.71,-50.432 v -1 h -1 v 1 z m 19.58,0 h 1 v -1 h -1 z m 1.03,41.344 -0.91,0.406 v 0.021 l 0.01,0.02 z m 3.33,3.584 0.5,-0.862 z m 12.16,-1.408 0.72,0.69 0.01,-0.009 0.01,-0.008 z m 2.56,-43.52 v -1 h -1 v 1 z m 19.58,0 h 1 v -1 h -1 z m -3.71,50.432 0.85,0.517 0.01,-0.008 z m -10.24,9.728 0.47,0.884 v -0.004 l 0.01,-0.003 z m -15.11,2.456 c -5.58,0 -10.49,-1.123 -14.77,-3.343 l -0.92,1.774 c 4.6,2.388 9.84,3.569 15.69,3.569 z m -14.75,-3.333 c -4.2,-2.307 -7.48,-5.429 -9.86,-9.368 l -1.71,1.034 c 2.57,4.253 6.11,7.617 10.61,10.088 z m -9.86,-9.36 c -2.37,-4.011 -3.57,-8.611 -3.57,-13.827 h -2 c 0,5.536 1.28,10.494 3.85,14.845 z m -3.57,-13.827 V 98.792 h -2 v 36.096 z m -1,-35.096 h 19.58 v -2 h -19.58 z m 18.58,-1 v 35.84 h 2 v -35.84 z m 0,35.84 c 0,2.237 0.36,4.217 1.12,5.91 l 1.82,-0.812 c -0.61,-1.379 -0.94,-3.068 -0.94,-5.098 z m 1.13,5.951 c 0.86,1.705 2.1,3.046 3.72,3.999 l 1.01,-1.724 c -1.28,-0.753 -2.25,-1.802 -2.94,-3.169 z m 3.72,3.999 c 1.63,0.961 3.57,1.418 5.75,1.418 v -2 c -1.9,0 -3.47,-0.397 -4.74,-1.142 z m 5.75,1.418 c 3.13,0 5.71,-0.974 7.64,-2.998 l -1.45,-1.38 c -1.48,1.56 -3.51,2.378 -6.19,2.378 z m 7.66,-3.015 c 1.91,-2.109 2.82,-4.933 2.82,-8.353 h -2 c 0,3.065 -0.81,5.361 -2.3,7.007 z m 2.82,-8.353 v -35.84 h -2 v 35.84 z m -1,-34.84 h 19.58 v -2 h -19.58 z m 18.58,-1 v 35.968 h 2 V 98.792 Z m 0,35.968 c 0,5.305 -1.2,9.946 -3.57,13.955 l 1.72,1.018 c 2.58,-4.354 3.85,-9.355 3.85,-14.973 z m -3.57,13.947 c -2.38,3.939 -5.66,7.061 -9.86,9.368 l 0.96,1.754 c 4.5,-2.471 8.05,-5.835 10.61,-10.088 z m -9.85,9.361 c -4.19,2.216 -9.05,3.34 -14.64,3.34 v 2 c 5.86,0 11.06,-1.18 15.58,-3.572 z m 37.47,-0.012 -0.53,0.849 0.01,0.004 z m -10.75,-11.52 -0.89,0.466 0.01,0.012 z m 0,-33.28 -0.88,-0.478 -0.01,0.012 z m 10.75,-11.52 -0.52,-0.853 -0.01,0.004 z m 27.26,-1.792 -0.43,0.903 0.01,0.004 z m 8.58,6.784 -0.8,0.607 0.01,0.014 0.02,0.012 z m 3.84,9.728 h 1 v -0.035 -0.035 z m 0,26.24 1,0.07 v -0.035 -0.035 z m -3.71,9.984 0.79,0.608 0.01,-0.012 z m -8.58,7.04 0.44,0.899 0.01,-0.005 0.01,-0.004 z m -0.89,-16.896 0.5,0.864 0.01,-0.008 0.02,-0.008 z m 4.86,-5.248 -0.88,-0.474 z m 0,-15.232 -0.9,0.447 0.02,0.021 0.01,0.021 z m -4.86,-5.248 -0.53,0.848 v 0.005 l 0.01,0.004 z m -14.47,0 -0.51,-0.857 -0.01,0.004 -0.01,0.005 z m -4.99,5.248 -0.87,-0.5 v 0.013 l -0.01,0.013 z m 0,15.104 -0.88,0.474 z M 1295.12,161 v 1 h 1 v -1 z m -19.2,0 h -1 v 1 h 1 z m 0,-16.768 -0.98,-0.191 -0.02,0.094 v 0.097 z m 2.95,-15.104 0.98,0.191 0.04,-0.203 -0.05,-0.203 z m -3.33,-15.104 h -1 v 0.109 l 0.02,0.106 z m 0,-45.952 v -1 h -1 v 1 z m 19.58,0 h 1 v -1 h -1 z m -35.84,93.208 c -5.72,0 -10.78,-1.366 -15.22,-4.077 l -1.04,1.706 c 4.78,2.921 10.21,4.371 16.26,4.371 z m -15.21,-4.073 c -4.37,-2.721 -7.84,-6.43 -10.4,-11.149 l -1.76,0.956 c 2.72,5.009 6.43,8.98 11.1,11.891 z m -10.4,-11.137 c -2.47,-4.702 -3.72,-10.085 -3.72,-16.174 h -2 c 0,6.37 1.31,12.08 3.95,17.106 z m -3.72,-16.174 c 0,-6.089 1.25,-11.472 3.72,-16.174 l -1.77,-0.932 c -2.64,5.026 -3.95,10.736 -3.95,17.106 z m 3.72,-16.162 c 2.56,-4.719 6.03,-8.428 10.4,-11.149 l -1.06,-1.698 c -4.67,2.911 -8.38,6.882 -11.1,11.891 z m 10.39,-11.145 c 4.44,-2.7112 9.5,-4.077 15.22,-4.077 v -2 c -6.05,0 -11.48,1.4502 -16.26,4.371 z m 15.22,-4.077 c 4.14,0 7.83,0.7854 11.09,2.335 l 0.86,-1.8063 c -3.56,-1.6928 -7.55,-2.5287 -11.95,-2.5287 z m 11.1,2.339 c 3.36,1.557 6.09,3.719 8.2,6.484 l 1.59,-1.214 c -2.32,-3.038 -5.31,-5.399 -8.95,-7.0843 z m 8.23,6.51 c 2.17,2.654 3.37,5.699 3.61,9.165 l 2,-0.14 c -0.27,-3.873 -1.63,-7.313 -4.07,-10.291 z m 3.61,9.095 v 26.24 h 2 v -26.24 z m 0,26.17 c -0.24,3.477 -1.41,6.622 -3.52,9.458 l 1.61,1.192 c 2.33,-3.138 3.64,-6.648 3.91,-10.51 z m -3.51,9.447 c -2.12,2.774 -4.86,5.028 -8.23,6.757 l 0.91,1.78 c 3.62,-1.855 6.6,-4.294 8.91,-7.323 z m -8.22,6.748 c -3.35,1.634 -7.08,2.459 -11.21,2.459 v 2 c 4.41,0 8.44,-0.882 12.09,-2.661 z m -7.75,-13.205 c 2.96,0 5.57,-0.629 7.8,-1.928 l -1.01,-1.728 c -1.87,1.09 -4.12,1.656 -6.79,1.656 z m 7.83,-1.944 c 2.2,-1.376 3.94,-3.257 5.21,-5.622 l -1.76,-0.948 c -1.12,2.073 -2.62,3.69 -4.51,4.874 z m 5.21,-5.622 c 1.28,-2.385 1.91,-5.112 1.91,-8.154 h -2 c 0,2.761 -0.57,5.154 -1.67,7.206 z m 1.91,-8.154 c 0,-3.04 -0.63,-5.732 -1.92,-8.041 l -1.74,0.978 c 1.09,1.958 1.66,4.301 1.66,7.063 z m -1.9,-7.999 c -1.19,-2.39 -2.94,-4.281 -5.24,-5.658 l -1.03,1.714 c 1.97,1.183 3.46,2.79 4.48,4.838 z m -5.22,-5.649 c -2.23,-1.392 -4.81,-2.072 -7.7,-2.072 v 2 c 2.57,0 4.77,0.6 6.64,1.768 z m -7.7,-2.072 c -2.9,0 -5.51,0.68 -7.81,2.063 l 1.03,1.714 c 1.96,-1.177 4.21,-1.777 6.78,-1.777 z m -7.83,2.072 c -2.19,1.372 -3.97,3.245 -5.33,5.596 l 1.74,1 c 1.2,-2.086 2.75,-3.712 4.65,-4.9 z m -5.34,5.622 c -1.28,2.381 -1.91,5.064 -1.91,8.026 h 2 c 0,-2.67 0.56,-5.021 1.67,-7.078 z m -1.91,8.026 c 0,2.962 0.63,5.645 1.91,8.026 l 1.76,-0.948 c -1.11,-2.057 -1.67,-4.408 -1.67,-7.078 z m 1.91,8.026 c 1.28,2.375 3.07,4.258 5.36,5.631 l 1.03,-1.714 c -1.98,-1.187 -3.52,-2.803 -4.63,-4.865 z m 5.36,5.631 c 2.3,1.38 4.86,2.063 7.68,2.063 v -2 c -2.48,0 -4.69,-0.597 -6.65,-1.777 z M 1295.12,160 h -19.2 v 2 h 19.2 z m -18.2,1 v -16.768 h -2 V 161 Z m -0.02,-16.577 2.95,-15.104 -1.96,-0.382 -2.95,15.104 z m 2.94,-15.51 -3.32,-15.104 -1.96,0.43 3.33,15.104 z m -3.3,-14.889 V 68.072 h -2 v 45.952 z m -1,-44.952 h 19.58 v -2 h -19.58 z m 18.58,-1 V 161 h 2 V 68.072 Z m 26.57,93.056 -0.26,0.966 v 0.001 z m -9.86,-3.968 -0.51,0.857 0.01,0.009 0.02,0.008 z m -7.68,-6.144 -0.71,-0.703 -0.67,0.68 0.65,0.702 z m 11.14,-11.264 0.73,-0.678 -0.71,-0.769 -0.73,0.744 z m 7.29,5.248 -0.41,0.91 0.01,0.006 0.01,0.005 z m 14.47,0.768 -0.47,-0.882 -0.02,0.007 -0.01,0.007 z m -0.39,-6.272 -0.5,0.862 0.03,0.017 0.03,0.015 z m -5.63,-2.176 -0.28,0.959 0.01,0.005 0.02,0.004 z m -14.59,-5.376 0.51,-0.86 z m -5.63,-5.632 -0.86,0.506 v 0.006 0.007 z m 0.89,-19.712 0.82,0.577 0.01,-0.011 z m 8.71,-7.04 -0.42,-0.9104 z m 27.77,0.256 -0.39,0.921 0.01,0.004 0.02,0.005 z m 11.01,8.064 0.71,0.703 0.62,-0.627 -0.54,-0.694 z m -11.13,11.264 -0.77,0.648 0.71,0.83 0.77,-0.775 z m -6.66,-4.864 -0.37,0.931 0.02,0.004 z m -12.03,-0.384 0.47,0.88 0.03,-0.013 0.02,-0.015 z m 6.14,7.808 -0.25,0.968 z m 7.3,2.176 0.31,-0.949 z m 7.29,3.456 0.54,-0.846 z m 5.64,5.888 -0.87,0.506 0.01,0.006 v 0.007 z m -4.74,23.936 -0.61,-0.789 -0.01,0.005 z m -18.43,4.376 c -3.59,0 -7.13,-0.458 -10.63,-1.375 l -0.51,1.934 c 3.67,0.96 7.38,1.441 11.14,1.441 z m -10.62,-1.374 c -3.43,-0.918 -6.63,-2.21 -9.63,-3.876 l -0.97,1.748 c 3.14,1.748 6.5,3.101 10.08,4.06 z m -9.6,-3.859 c -2.92,-1.749 -5.4,-3.739 -7.46,-5.966 l -1.47,1.358 c 2.2,2.381 4.84,4.487 7.9,6.322 z m -7.49,-4.584 11.14,-11.264 -1.42,-1.406 -11.14,11.264 z m 9.69,-11.289 c 2.14,2.319 4.69,4.147 7.62,5.48 l 0.83,-1.82 c -2.7,-1.227 -5.02,-2.898 -6.98,-5.016 z m 7.64,5.491 c 2.95,1.251 6.16,1.871 9.61,1.871 v -2 c -3.21,0 -6.14,-0.575 -8.83,-1.713 z m 9.61,1.871 c 2.37,0 4.33,-0.347 5.74,-1.156 l -0.99,-1.736 c -0.97,0.556 -2.52,0.892 -4.75,0.892 z m 5.72,-1.142 c 1.52,-0.812 2.45,-2.048 2.45,-3.698 h -2 c 0,0.74 -0.36,1.38 -1.39,1.934 z m 2.45,-3.698 c 0,-0.943 -0.24,-1.813 -0.75,-2.571 -0.5,-0.751 -1.22,-1.336 -2.11,-1.779 l -0.89,1.788 c 0.65,0.325 1.07,0.7 1.34,1.101 0.26,0.394 0.41,0.868 0.41,1.461 z m -2.8,-4.318 c -1.56,-0.915 -3.53,-1.67 -5.89,-2.282 l -0.5,1.936 c 2.25,0.583 4.03,1.279 5.38,2.07 z m -5.85,-2.273 c -2.31,-0.682 -4.74,-1.407 -7.3,-2.175 l -0.57,1.916 c 2.56,0.768 4.99,1.494 7.3,2.177 z m -7.3,-2.175 c -2.48,-0.744 -4.84,-1.778 -7.07,-3.102 l -1.02,1.72 c 2.37,1.407 4.88,2.506 7.52,3.298 z m -7.07,-3.102 c -2.16,-1.278 -3.92,-3.036 -5.29,-5.291 l -1.71,1.038 c 1.54,2.523 3.53,4.521 5.98,5.973 z m -5.28,-5.278 c -1.34,-2.281 -2.04,-5.208 -2.04,-8.838 h -2 c 0,3.879 0.75,7.181 2.32,9.85 z m -2.04,-8.838 c 0,-3.832 0.98,-7.08 2.89,-9.791 l -1.63,-1.154 c -2.19,3.092 -3.26,6.756 -3.26,10.945 z m 2.9,-9.802 c 1.93,-2.817 4.68,-5.054 8.29,-6.696 l -0.83,-1.8204 c -3.89,1.7714 -6.95,4.2284 -9.11,7.3844 z m 8.29,-6.696 c 3.6,-1.6357 7.85,-2.47 12.77,-2.47 v -2 c -5.14,0 -9.69,0.8723 -13.6,2.6496 z M 1332.59,98 c 5.17,0 9.9,0.9167 14.2,2.737 l 0.78,-1.842 C 1343,96.9606 1338,96 1332.59,96 Z m 14.23,2.746 c 4.37,1.731 7.89,4.316 10.59,7.752 l 1.57,-1.236 c -2.93,-3.732 -6.75,-6.523 -11.43,-8.3757 z m 10.66,6.431 -11.14,11.264 1.43,1.406 11.13,-11.264 z m -9.66,11.319 c -2.06,-2.414 -4.41,-4.144 -7.07,-5.151 l -0.7,1.87 c 2.29,0.871 4.38,2.383 6.24,4.577 z m -7.05,-5.147 c -2.5,-0.979 -4.97,-1.477 -7.41,-1.477 v 2 c 2.17,0 4.39,0.441 6.67,1.339 z m -7.41,-1.477 c -2.29,0 -4.17,0.346 -5.52,1.172 l 1.05,1.704 c 0.88,-0.54 2.32,-0.876 4.47,-0.876 z m -5.47,1.144 c -0.67,0.365 -1.23,0.85 -1.62,1.474 -0.39,0.626 -0.57,1.336 -0.57,2.094 h 2 c 0,-0.437 0.1,-0.772 0.27,-1.042 0.17,-0.272 0.44,-0.534 0.87,-0.766 z m -2.19,3.568 c 0,1.759 1.04,3.072 2.71,3.956 l 0.94,-1.768 c -1.23,-0.652 -1.65,-1.387 -1.65,-2.188 z m 2.71,3.956 c 1.54,0.816 3.5,1.523 5.85,2.132 l 0.5,-1.936 c -2.26,-0.586 -4.05,-1.244 -5.41,-1.964 z m 5.85,2.132 c 2.28,0.591 4.69,1.31 7.23,2.157 l 0.63,-1.898 c -2.57,-0.859 -5.03,-1.591 -7.36,-2.195 z m 7.23,2.157 c 2.49,0.827 4.84,1.945 7.08,3.353 l 1.07,-1.692 c -2.37,-1.493 -4.88,-2.68 -7.52,-3.559 z m 7.08,3.353 c 2.16,1.361 3.93,3.204 5.3,5.548 l 1.73,-1.012 c -1.53,-2.605 -3.52,-4.688 -5.96,-6.228 z m 5.31,5.561 c 1.33,2.182 2.03,5.14 2.03,8.953 h 2 c 0,-4.038 -0.74,-7.394 -2.32,-9.991 z m 2.03,8.953 c 0,5.764 -2.17,10.288 -6.52,13.675 l 1.22,1.578 c 4.87,-3.781 7.3,-8.899 7.3,-15.253 z m -6.53,13.68 c -4.29,3.403 -10.19,5.16 -17.81,5.16 v 2 c 7.91,0 14.3,-1.827 19.05,-5.592 z m 29.93,4.752 -0.26,0.966 0.01,0.001 z m -9.85,-3.968 -0.52,0.857 0.02,0.009 0.01,0.008 z m -7.68,-6.144 -0.71,-0.703 -0.68,0.68 0.65,0.702 z m 11.13,-11.264 0.74,-0.678 -0.71,-0.769 -0.74,0.744 z m 7.3,5.248 -0.41,0.91 0.01,0.006 0.01,0.005 z m 14.46,0.768 -0.47,-0.882 -0.01,0.007 -0.01,0.007 z m -0.38,-6.272 -0.51,0.862 0.03,0.017 0.03,0.015 z m -5.63,-2.176 -0.29,0.959 0.02,0.005 0.02,0.004 z m -14.59,-5.376 0.5,-0.86 z m -5.64,-5.632 -0.86,0.506 v 0.006 l 0.01,0.007 z m 0.9,-19.712 0.82,0.577 v -0.011 z m 8.7,-7.04 -0.41,-0.9104 z m 27.78,0.256 -0.39,0.921 0.01,0.004 0.01,0.005 z m 11.01,8.064 0.71,0.703 0.62,-0.627 -0.55,-0.694 z m -11.14,11.264 -0.76,0.648 0.71,0.83 0.76,-0.775 z m -6.65,-4.864 -0.37,0.931 0.01,0.004 z m -12.04,-0.384 0.48,0.88 0.02,-0.013 0.03,-0.015 z m 6.15,7.808 -0.25,0.968 z m 7.29,2.176 0.32,-0.949 z m 7.3,3.456 0.53,-0.846 z m 5.63,5.888 -0.86,0.506 v 0.006 l 0.01,0.007 z m -4.74,23.936 -0.61,-0.789 -0.01,0.005 z m -18.43,4.376 c -3.58,0 -7.12,-0.458 -10.62,-1.375 l -0.51,1.934 c 3.67,0.96 7.38,1.441 11.13,1.441 z m -10.62,-1.374 c -3.42,-0.918 -6.63,-2.21 -9.63,-3.876 l -0.97,1.748 c 3.15,1.748 6.51,3.101 10.08,4.06 z m -9.6,-3.859 c -2.91,-1.749 -5.4,-3.739 -7.46,-5.966 l -1.47,1.358 c 2.21,2.381 4.84,4.487 7.9,6.322 z m -7.48,-4.584 11.13,-11.264 -1.42,-1.406 -11.13,11.264 z m 9.69,-11.289 c 2.14,2.319 4.68,4.147 7.62,5.48 l 0.82,-1.82 c -2.69,-1.227 -5.02,-2.898 -6.97,-5.016 z m 7.64,5.491 c 2.95,1.251 6.15,1.871 9.6,1.871 v -2 c -3.2,0 -6.14,-0.575 -8.82,-1.713 z m 9.6,1.871 c 2.38,0 4.33,-0.347 5.75,-1.156 l -0.99,-1.736 c -0.98,0.556 -2.52,0.892 -4.76,0.892 z m 5.72,-1.142 c 1.53,-0.812 2.45,-2.048 2.45,-3.698 h -2 c 0,0.74 -0.35,1.38 -1.39,1.934 z m 2.45,-3.698 c 0,-0.943 -0.24,-1.813 -0.74,-2.571 -0.5,-0.751 -1.23,-1.336 -2.11,-1.779 l -0.9,1.788 c 0.65,0.325 1.08,0.7 1.34,1.101 0.27,0.394 0.41,0.868 0.41,1.461 z m -2.79,-4.318 c -1.56,-0.915 -3.53,-1.67 -5.89,-2.282 l -0.5,1.936 c 2.24,0.583 4.03,1.279 5.37,2.07 z m -5.86,-2.273 c -2.3,-0.682 -4.73,-1.407 -7.29,-2.175 l -0.58,1.916 c 2.56,0.768 5,1.494 7.3,2.177 z m -7.29,-2.175 c -2.48,-0.744 -4.84,-1.778 -7.08,-3.102 l -1.01,1.72 c 2.37,1.407 4.88,2.506 7.51,3.298 z m -7.08,-3.102 c -2.15,-1.278 -3.91,-3.036 -5.28,-5.291 l -1.71,1.038 c 1.53,2.523 3.52,4.521 5.98,5.973 z m -5.27,-5.278 c -1.34,-2.281 -2.04,-5.208 -2.04,-8.838 h -2 c 0,3.879 0.75,7.181 2.31,9.85 z m -2.04,-8.838 c 0,-3.832 0.97,-7.08 2.89,-9.791 l -1.64,-1.154 c -2.18,3.092 -3.25,6.756 -3.25,10.945 z m 2.89,-9.802 c 1.94,-2.817 4.68,-5.054 8.3,-6.696 l -0.83,-1.8204 c -3.9,1.7714 -6.95,4.2284 -9.12,7.3844 z m 8.3,-6.696 c 3.6,-1.6357 7.84,-2.47 12.77,-2.47 v -2 c -5.15,0 -9.69,0.8723 -13.6,2.6496 z M 1391.22,98 c 5.17,0 9.9,0.9167 14.2,2.737 l 0.78,-1.842 C 1401.63,96.9606 1396.63,96 1391.22,96 Z m 14.22,2.746 c 4.37,1.731 7.89,4.316 10.59,7.752 l 1.57,-1.236 c -2.93,-3.732 -6.75,-6.523 -11.42,-8.3757 z m 10.67,6.431 -11.14,11.264 1.42,1.406 11.14,-11.264 z m -9.67,11.319 c -2.05,-2.414 -4.41,-4.144 -7.06,-5.151 l -0.71,1.87 c 2.3,0.871 4.38,2.383 6.25,4.577 z m -7.05,-5.147 c -2.49,-0.979 -4.96,-1.477 -7.41,-1.477 v 2 c 2.17,0 4.39,0.441 6.68,1.339 z m -7.41,-1.477 c -2.28,0 -4.17,0.346 -5.51,1.172 l 1.05,1.704 c 0.87,-0.54 2.32,-0.876 4.46,-0.876 z m -5.46,1.144 c -0.68,0.365 -1.24,0.85 -1.63,1.474 -0.38,0.626 -0.56,1.336 -0.56,2.094 h 2 c 0,-0.437 0.1,-0.772 0.27,-1.042 0.16,-0.272 0.44,-0.534 0.87,-0.766 z m -2.19,3.568 c 0,1.759 1.04,3.072 2.71,3.956 l 0.93,-1.768 c -1.23,-0.652 -1.64,-1.387 -1.64,-2.188 z m 2.71,3.956 c 1.54,0.816 3.5,1.523 5.85,2.132 l 0.5,-1.936 c -2.26,-0.586 -4.06,-1.244 -5.42,-1.964 z m 5.85,2.132 c 2.28,0.591 4.69,1.31 7.23,2.157 l 0.63,-1.898 c -2.58,-0.859 -5.03,-1.591 -7.36,-2.195 z m 7.23,2.157 c 2.48,0.827 4.84,1.945 7.08,3.353 l 1.06,-1.692 c -2.37,-1.493 -4.87,-2.68 -7.51,-3.559 z m 7.08,3.353 c 2.16,1.361 3.92,3.204 5.3,5.548 l 1.72,-1.012 c -1.52,-2.605 -3.51,-4.688 -5.96,-6.228 z m 5.31,5.561 c 1.32,2.182 2.03,5.14 2.03,8.953 h 2 c 0,-4.038 -0.75,-7.394 -2.32,-9.991 z m 2.03,8.953 c 0,5.764 -2.18,10.288 -6.53,13.675 l 1.23,1.578 c 4.86,-3.781 7.3,-8.899 7.3,-15.253 z m -6.54,13.68 c -4.29,3.403 -10.19,5.16 -17.81,5.16 v 2 c 7.92,0 14.3,-1.827 19.06,-5.592 z m 66.86,4.624 -0.95,0.306 0.22,0.694 h 0.73 z M 1445.8,70.632 v -1 h -1.37 l 0.42,1.3061 z m 19.97,0 0.96,-0.2924 -0.22,-0.7076 h -0.74 z m 21.25,69.504 v 1 h 1.35 l -0.4,-1.292 z m -7.81,0 -0.96,-0.286 -0.38,1.286 h 1.34 z m 20.74,-69.504 v -1 h -0.75 l -0.21,0.7141 z m 15.74,0 0.96,-0.2859 -0.22,-0.7141 h -0.74 z m 20.73,69.504 v 1 h 1.35 l -0.39,-1.286 z m -7.68,0 -0.95,-0.291 -0.39,1.291 h 1.34 z m 21.12,-69.504 v -1 h -0.74 l -0.21,0.7093 z m 19.85,0 0.95,0.3061 0.42,-1.3061 h -1.37 z M 1540.65,161 v 1 h 0.73 l 0.22,-0.694 z m -15.74,0 -0.96,0.288 0.21,0.712 h 0.75 z m -20.87,-69.504 v -1 h -1.34 l 0.38,1.2875 z m 7.43,0 0.95,0.2875 0.39,-1.2875 h -1.34 z M 1490.6,161 v 1 h 0.74 l 0.22,-0.712 z m -14.79,-0.306 -29.06,-90.3681 -1.9,0.6122 29.06,90.3679 z M 1445.8,71.632 h 19.97 v -2 h -19.97 z m 19.01,-0.7077 21.25,69.5037 1.91,-0.584 -21.24,-69.5044 z m 22.21,68.2117 h -7.81 v 2 h 7.81 z m -6.85,1.286 20.73,-69.5041 -1.91,-0.5718 -20.74,69.5039 z m 19.78,-68.79 h 15.74 v -2 h -15.74 z m 14.78,-0.7141 20.74,69.5041 1.91,-0.572 -20.73,-69.5039 z m 21.69,68.2181 h -7.68 v 2 h 7.68 z m -6.72,1.291 21.12,-69.5043 -1.91,-0.5814 -21.12,69.5037 z m 20.16,-68.795 h 19.85 v -2 h -19.85 z m 18.89,-1.3061 -29.05,90.3681 1.9,0.612 29.06,-90.3679 z M 1540.65,160 h -15.74 v 2 h 15.74 z m -14.79,0.712 -20.86,-69.5035 -1.92,0.575 20.87,69.5045 z m -21.82,-68.216 h 7.43 v -2 h -7.43 z m 6.47,-1.2875 -20.87,69.5035 1.92,0.576 20.86,-69.5045 z M 1490.6,160 h -15.74 v 2 h 15.74 z m 92.73,-1.816 -0.49,0.87 0.01,0.005 0.01,0.005 z m -12.16,-11.776 0.86,-0.517 z m 0,-33.152 -0.85,-0.523 z m 12.16,-11.52 0.48,0.876 0.01,-0.006 z m 46.98,11.52 -0.86,0.517 v 0.006 z m 0,33.152 0.85,0.517 z m -12.16,11.776 0.48,0.876 0.01,-0.006 z m -9.99,-15.36 0.49,0.873 0.01,-0.008 0.02,-0.008 z m 4.87,-5.248 -0.89,-0.46 v 0.006 l -0.01,0.007 z m 0,-15.36 -0.88,0.474 v 0.007 0.008 z m -4.99,-5.12 -0.53,0.848 0.02,0.013 0.02,0.012 z m -14.6,0 0.49,0.873 0.01,-0.008 0.02,-0.008 z m -4.99,5.12 0.88,0.474 z m 0,15.36 -0.89,0.46 0.01,0.007 v 0.007 z m 4.99,5.248 -0.51,0.857 0.01,0.008 0.01,0.008 z m 7.3,18.584 c -6.25,0 -11.89,-1.373 -16.93,-4.104 l -0.95,1.76 c 5.36,2.901 11.33,4.344 17.88,4.344 z m -16.92,-4.094 c -4.97,-2.818 -8.9,-6.623 -11.79,-11.423 l -1.72,1.034 c 3.08,5.099 7.26,9.145 12.53,12.129 z m -11.79,-11.423 c -2.89,-4.783 -4.34,-10.149 -4.34,-16.123 h -2 c 0,6.314 1.54,12.042 4.62,17.157 z m -4.34,-16.123 c 0,-5.974 1.45,-11.294 4.33,-15.989 l -1.7,-1.046 c -3.09,5.033 -4.63,10.721 -4.63,17.035 z m 4.33,-15.989 c 2.9,-4.712 6.82,-8.432 11.79,-11.167 l -0.96,-1.752 c -5.27,2.897 -9.45,6.857 -12.53,11.873 z m 11.8,-11.173 c 4.96,-2.8076 10.59,-4.222 16.92,-4.222 v -2 c -6.64,0 -12.62,1.487 -17.9,4.482 z m 16.92,-4.222 c 6.33,0 11.97,1.3741 16.93,4.1 l 0.96,-1.752 c -5.28,-2.9061 -11.26,-4.348 -17.89,-4.348 z m 16.93,4.1 c 4.96,2.732 8.89,6.492 11.78,11.289 l 1.71,-1.034 c -3.08,-5.101 -7.26,-9.107 -12.53,-12.007 z m 11.78,11.295 c 2.89,4.695 4.34,10.015 4.34,15.989 h 2 c 0,-6.314 -1.54,-12.002 -4.63,-17.035 z m 4.34,15.989 c 0,5.974 -1.45,11.34 -4.34,16.123 l 1.71,1.034 c 3.09,-5.115 4.63,-10.843 4.63,-17.157 z m -4.34,16.123 c -2.9,4.8 -6.82,8.605 -11.8,11.423 l 0.99,1.74 c 5.27,-2.984 9.45,-7.03 12.52,-12.129 z m -11.78,11.417 c -4.96,2.726 -10.6,4.1 -16.93,4.1 v 2 c 6.63,0 12.61,-1.442 17.89,-4.348 z m -16.93,-11.692 c 2.96,0 5.61,-0.629 7.91,-1.919 l -0.98,-1.746 c -1.96,1.1 -4.26,1.665 -6.93,1.665 z m 7.94,-1.935 c 2.29,-1.377 4.05,-3.268 5.24,-5.658 l -1.79,-0.894 c -1.02,2.048 -2.51,3.655 -4.48,4.838 z m 5.23,-5.645 c 1.28,-2.462 1.91,-5.226 1.91,-8.268 h -2 c 0,2.76 -0.57,5.202 -1.68,7.348 z m 1.91,-8.268 c 0,-3.04 -0.63,-5.732 -1.92,-8.041 l -1.75,0.978 c 1.1,1.958 1.67,4.301 1.67,7.063 z m -1.91,-8.026 c -1.28,-2.381 -3.08,-4.228 -5.39,-5.519 l -0.97,1.746 c 1.96,1.098 3.49,2.664 4.6,4.721 z m -5.34,-5.494 c -2.24,-1.395 -4.86,-2.072 -7.83,-2.072 v 2 c 2.66,0 4.9,0.603 6.77,1.768 z m -7.83,-2.072 c -2.89,0 -5.51,0.68 -7.81,2.063 l 1.03,1.714 c 1.96,-1.177 4.21,-1.777 6.78,-1.777 z m -7.79,2.047 c -2.3,1.291 -4.1,3.138 -5.38,5.519 l 1.76,0.948 c 1.11,-2.057 2.64,-3.623 4.6,-4.721 z m -5.38,5.519 c -1.28,2.385 -1.91,5.112 -1.91,8.154 h 2 c 0,-2.761 0.57,-5.154 1.67,-7.206 z m -1.91,8.154 c 0,2.962 0.63,5.682 1.9,8.14 l 1.78,-0.92 c -1.12,-2.15 -1.68,-4.55 -1.68,-7.22 z m 1.91,8.154 c 1.28,2.375 3.07,4.258 5.36,5.631 l 1.03,-1.714 c -1.98,-1.187 -3.52,-2.803 -4.63,-4.865 z m 5.38,5.647 c 2.3,1.287 4.91,1.919 7.79,1.919 v -2 c -2.58,0 -4.84,-0.563 -6.81,-1.665 z M 1644.54,161 h -1 v 1 h 1 z m 0,-62.208 v -1 h -1 v 1 z m 19.58,0 h 1 v -1 h -1 z m 0,62.208 v 1 h 1 v -1 z m 0,-34.176 -0.61,0.788 1.61,1.262 v -2.05 z m -8.19,-6.4 -0.98,-0.218 -0.13,0.617 0.49,0.389 z m 8.19,-16.896 0.72,0.692 z m 23.81,-4.608 -0.39,0.921 0.02,0.0088 0.02,0.0079 z m 6.02,4.096 0.78,0.621 0.53,-0.666 -0.58,-0.628 z m -11.65,14.72 -0.74,0.673 0.79,0.872 0.73,-0.924 z m -3.2,-2.176 -0.37,0.928 z m -12.16,2.304 -0.72,-0.692 -0.01,0.001 z M 1645.54,161 V 98.792 h -2 V 161 Z m -1,-61.208 h 19.58 v -2 h -19.58 z m 18.58,-1 V 161 h 2 V 98.792 Z m 1,61.208 h -19.58 v 2 h 19.58 z m 0.62,-33.964 -8.2,-6.4 -1.23,1.576 8.2,6.4 z m -7.84,-5.394 c 1.6,-7.134 4.27,-12.581 7.94,-16.422 l -1.44,-1.384 c -4,4.18 -6.8,9.997 -8.45,17.37 z m 7.94,-16.422 c 3.61,-3.77 8.66,-5.708 15.28,-5.708 v -2 c -7.03,0 -12.65,2.0731 -16.72,6.324 z m 15.28,-5.708 c 2.88,0 5.35,0.4533 7.42,1.329 l 0.78,-1.842 c -2.37,-1.0017 -5.11,-1.487 -8.2,-1.487 z m 7.46,1.3457 c 2.15,0.7963 4.02,2.0683 5.63,3.8313 l 1.47,-1.346 c -1.81,-1.992 -3.94,-3.4499 -6.4,-4.3607 z m 5.58,2.5373 -11.65,14.72 1.57,1.242 11.65,-14.72 z m -10.12,14.668 c -0.97,-1.06 -2.16,-1.868 -3.57,-2.431 l -0.74,1.856 c 1.15,0.461 2.08,1.104 2.83,1.921 z m -3.57,-2.431 c -1.42,-0.567 -3,-0.84 -4.73,-0.84 v 2 c 1.52,0 2.84,0.239 3.99,0.696 z m -4.73,-0.84 c -3.47,0 -6.35,1.106 -8.52,3.38 l 1.44,1.384 c 1.75,-1.822 4.07,-2.764 7.08,-2.764 z m -8.53,3.381 c -2.12,2.221 -3.09,5.504 -3.09,9.651 h 2 c 0,-3.874 0.91,-6.564 2.54,-8.269 z m 72.76,43.827 -0.83,0.559 0.3,0.441 h 0.53 z m -21.76,-32.256 -0.81,-0.585 -0.41,0.565 0.39,0.579 z m 21.63,-29.952 v -1 h -0.51 l -0.3,0.4145 z m 21.89,0 0.79,0.6129 1.25,-1.6129 h -2.04 z m -26.11,33.664 -1,-0.079 -0.26,3.337 2.05,-2.645 z m 0.64,-8.064 0.81,-0.59 -1.6,-2.177 -0.21,2.688 z M 1762.01,161 v 1 h 1.97 l -1.16,-1.59 z m -62.85,0 h -1 v 1 h 1 z m 0,-92.928 v -1 h -1 v 1 z m 19.59,0 h 1 v -1 h -1 z m 0,92.928 v 1 h 1 v -1 z m 21.05,-0.559 -21.76,-32.256 -1.66,1.118 21.76,32.256 z m -21.78,-31.112 21.63,-29.9515 -1.62,-1.171 -21.63,29.9525 z m 20.82,-29.537 h 21.89 v -2 h -21.89 z m 21.1,-1.6129 -26.11,33.6639 1.58,1.226 26.11,-33.6641 z m -24.33,34.3559 0.64,-8.064 -1.99,-0.158 -0.64,8.064 z m -1.16,-7.553 26.75,36.608 1.62,-1.18 -26.75,-36.608 z M 1762.01,160 h -23.04 v 2 h 23.04 z m -61.85,1 V 68.072 h -2 V 161 Z m -1,-91.928 h 19.59 v -2 h -19.59 z m 18.59,-1 V 161 h 2 V 68.072 Z m 1,91.928 h -19.59 v 2 h 19.59 z m 58.44,1.128 -0.26,0.966 v 0.001 z m -9.86,-3.968 -0.51,0.857 0.01,0.009 0.02,0.008 z m -7.68,-6.144 -0.71,-0.703 -0.67,0.68 0.65,0.702 z m 11.14,-11.264 0.73,-0.678 -0.71,-0.769 -0.73,0.744 z m 7.29,5.248 -0.41,0.91 0.01,0.006 0.01,0.005 z m 14.47,0.768 -0.47,-0.882 -0.02,0.007 -0.01,0.007 z m -0.39,-6.272 -0.5,0.862 0.03,0.017 0.03,0.015 z m -5.63,-2.176 -0.28,0.959 0.01,0.005 0.02,0.004 z m -14.59,-5.376 0.51,-0.86 z m -5.63,-5.632 -0.86,0.506 v 0.006 0.007 z m 0.89,-19.712 0.82,0.577 0.01,-0.011 z m 8.71,-7.04 -0.42,-0.9104 z m 27.77,0.256 -0.39,0.921 0.01,0.004 0.02,0.005 z m 11.01,8.064 0.71,0.703 0.62,-0.627 -0.54,-0.694 z m -11.13,11.264 -0.77,0.648 0.71,0.83 0.77,-0.775 z m -6.66,-4.864 -0.37,0.931 0.02,0.004 z m -12.03,-0.384 0.47,0.88 0.03,-0.013 0.02,-0.015 z m 6.14,7.808 -0.25,0.968 z m 7.3,2.176 0.31,-0.949 z m 7.29,3.456 0.54,-0.846 z m 5.64,5.888 -0.87,0.506 0.01,0.006 v 0.007 z m -4.74,23.936 -0.61,-0.789 -0.01,0.005 z m -18.43,4.376 c -3.59,0 -7.13,-0.458 -10.63,-1.375 l -0.51,1.934 c 3.67,0.96 7.38,1.441 11.14,1.441 z m -10.62,-1.374 c -3.43,-0.918 -6.63,-2.21 -9.63,-3.876 l -0.97,1.748 c 3.14,1.748 6.5,3.101 10.08,4.06 z m -9.6,-3.859 c -2.92,-1.749 -5.4,-3.739 -7.46,-5.966 l -1.47,1.358 c 2.2,2.381 4.84,4.487 7.9,6.322 z m -7.49,-4.584 11.14,-11.264 -1.42,-1.406 -11.14,11.264 z m 9.69,-11.289 c 2.14,2.319 4.69,4.147 7.62,5.48 l 0.83,-1.82 c -2.7,-1.227 -5.02,-2.898 -6.98,-5.016 z m 7.64,5.491 c 2.95,1.251 6.16,1.871 9.61,1.871 v -2 c -3.21,0 -6.14,-0.575 -8.83,-1.713 z m 9.61,1.871 c 2.37,0 4.33,-0.347 5.74,-1.156 l -0.99,-1.736 c -0.97,0.556 -2.52,0.892 -4.75,0.892 z m 5.72,-1.142 c 1.52,-0.812 2.45,-2.048 2.45,-3.698 h -2 c 0,0.74 -0.36,1.38 -1.39,1.934 z m 2.45,-3.698 c 0,-0.943 -0.24,-1.813 -0.75,-2.571 -0.5,-0.751 -1.22,-1.336 -2.11,-1.779 l -0.89,1.788 c 0.65,0.325 1.07,0.7 1.34,1.101 0.26,0.394 0.41,0.868 0.41,1.461 z m -2.8,-4.318 c -1.56,-0.915 -3.53,-1.67 -5.89,-2.282 l -0.5,1.936 c 2.25,0.583 4.03,1.279 5.38,2.07 z m -5.85,-2.273 c -2.31,-0.682 -4.74,-1.407 -7.3,-2.175 l -0.57,1.916 c 2.56,0.768 4.99,1.494 7.3,2.177 z m -7.3,-2.175 c -2.48,-0.744 -4.84,-1.778 -7.07,-3.102 l -1.02,1.72 c 2.37,1.407 4.88,2.506 7.52,3.298 z m -7.07,-3.102 c -2.16,-1.278 -3.92,-3.036 -5.29,-5.291 l -1.71,1.038 c 1.54,2.523 3.53,4.521 5.98,5.973 z m -5.28,-5.278 c -1.34,-2.281 -2.04,-5.208 -2.04,-8.838 h -2 c 0,3.879 0.75,7.181 2.32,9.85 z m -2.04,-8.838 c 0,-3.832 0.98,-7.08 2.89,-9.791 l -1.63,-1.154 c -2.19,3.092 -3.26,6.756 -3.26,10.945 z m 2.9,-9.802 c 1.93,-2.817 4.68,-5.054 8.29,-6.696 l -0.83,-1.8204 c -3.89,1.7714 -6.95,4.2284 -9.11,7.3844 z m 8.29,-6.696 c 3.6,-1.6357 7.85,-2.47 12.77,-2.47 v -2 c -5.14,0 -9.69,0.8723 -13.6,2.6496 z M 1789.09,98 c 5.17,0 9.9,0.9167 14.2,2.737 l 0.78,-1.842 C 1799.5,96.9606 1794.5,96 1789.09,96 Z m 14.23,2.746 c 4.37,1.731 7.89,4.316 10.59,7.752 l 1.57,-1.236 c -2.93,-3.732 -6.75,-6.523 -11.43,-8.3757 z m 10.66,6.431 -11.14,11.264 1.43,1.406 11.13,-11.264 z m -9.66,11.319 c -2.06,-2.414 -4.41,-4.144 -7.07,-5.151 l -0.7,1.87 c 2.29,0.871 4.38,2.383 6.24,4.577 z m -7.05,-5.147 c -2.5,-0.979 -4.97,-1.477 -7.41,-1.477 v 2 c 2.17,0 4.39,0.441 6.67,1.339 z m -7.41,-1.477 c -2.29,0 -4.17,0.346 -5.52,1.172 l 1.05,1.704 c 0.88,-0.54 2.32,-0.876 4.47,-0.876 z m -5.47,1.144 c -0.67,0.365 -1.23,0.85 -1.62,1.474 -0.39,0.626 -0.57,1.336 -0.57,2.094 h 2 c 0,-0.437 0.1,-0.772 0.27,-1.042 0.17,-0.272 0.44,-0.534 0.87,-0.766 z m -2.19,3.568 c 0,1.759 1.04,3.072 2.71,3.956 l 0.94,-1.768 c -1.23,-0.652 -1.65,-1.387 -1.65,-2.188 z m 2.71,3.956 c 1.54,0.816 3.5,1.523 5.85,2.132 l 0.5,-1.936 c -2.26,-0.586 -4.05,-1.244 -5.41,-1.964 z m 5.85,2.132 c 2.28,0.591 4.69,1.31 7.23,2.157 l 0.63,-1.898 c -2.57,-0.859 -5.03,-1.591 -7.36,-2.195 z m 7.23,2.157 c 2.49,0.827 4.84,1.945 7.08,3.353 l 1.07,-1.692 c -2.37,-1.493 -4.88,-2.68 -7.52,-3.559 z m 7.08,3.353 c 2.16,1.361 3.93,3.204 5.3,5.548 l 1.73,-1.012 c -1.53,-2.605 -3.52,-4.688 -5.96,-6.228 z m 5.31,5.561 c 1.33,2.182 2.03,5.14 2.03,8.953 h 2 c 0,-4.038 -0.74,-7.394 -2.32,-9.991 z m 2.03,8.953 c 0,5.764 -2.17,10.288 -6.52,13.675 l 1.22,1.578 c 4.87,-3.781 7.3,-8.899 7.3,-15.253 z m -6.53,13.68 c -4.29,3.403 -10.19,5.16 -17.81,5.16 v 2 c 7.91,0 14.3,-1.827 19.05,-5.592 z"
       fill="#444444"
       mask="url(#path-2-outside-1_1_8310)"
       id="path864"
       transform="matrix(0.26458333,0,0,0.26458333,-59.700088,-15.369167)" />
  </g>
</svg>
